<svg width="126" height="40" viewBox="0 0 126 40" fill="none" xmlns="http://www.w3.org/2000/svg">
<path fill-rule="evenodd" clip-rule="evenodd" d="M98.1875 21.0597C98.1875 20.9022 98.2501 20.7512 98.3614 20.6398C98.4728 20.5285 98.6238 20.4659 98.7813 20.4659L112.785 20.4659L109.048 16.73C108.937 16.6186 108.874 16.4673 108.874 16.3097C108.874 16.152 108.937 16.0008 109.048 15.8893C109.16 15.7778 109.311 15.7152 109.469 15.7152C109.626 15.7152 109.778 15.7778 109.889 15.8893L114.639 20.6393C114.694 20.6945 114.738 20.76 114.768 20.8321C114.798 20.9042 114.814 20.9816 114.814 21.0597C114.814 21.1378 114.798 21.2151 114.768 21.2872C114.738 21.3594 114.694 21.4249 114.639 21.48L109.889 26.23C109.778 26.3415 109.626 26.4042 109.469 26.4042C109.311 26.4042 109.16 26.3415 109.048 26.23C108.937 26.1186 108.874 25.9673 108.874 25.8097C108.874 25.652 108.937 25.5008 109.048 25.3893L112.785 21.6534L98.7813 21.6534C98.6238 21.6534 98.4728 21.5909 98.3614 21.4795C98.2501 21.3682 98.1875 21.2171 98.1875 21.0597V21.0597Z" fill="black"/>
<path d="M30.6576 25.82H30.7476V26H28.1916V25.82H28.2816C28.3776 25.82 28.4616 25.784 28.5336 25.712C28.6056 25.64 28.6656 25.556 28.7136 25.46C28.7736 25.364 28.8156 25.262 28.8396 25.154C28.8636 25.034 28.8756 24.926 28.8756 24.83V14.786H26.7876C26.5956 14.786 26.4276 14.828 26.2836 14.912C26.1396 14.996 26.0196 15.104 25.9236 15.236C25.8276 15.356 25.7556 15.494 25.7076 15.65C25.6596 15.794 25.6356 15.938 25.6356 16.082H25.4556V14.12H33.5376V16.082H33.3576C33.3576 15.938 33.3336 15.794 33.2856 15.65C33.2376 15.494 33.1656 15.356 33.0696 15.236C32.9736 15.104 32.8536 14.996 32.7096 14.912C32.5656 14.828 32.3976 14.786 32.2056 14.786H30.0816V24.83C30.0816 24.926 30.0936 25.034 30.1176 25.154C30.1416 25.262 30.1776 25.364 30.2256 25.46C30.2856 25.556 30.3456 25.64 30.4056 25.712C30.4776 25.784 30.5616 25.82 30.6576 25.82ZM37.698 19.754C37.554 19.514 37.404 19.364 37.248 19.304C37.092 19.244 36.912 19.214 36.708 19.214C36.576 19.214 36.432 19.244 36.276 19.304C36.132 19.364 35.988 19.442 35.844 19.538C35.7 19.634 35.556 19.742 35.412 19.862C35.28 19.97 35.166 20.072 35.07 20.168V24.848C35.07 24.944 35.082 25.046 35.106 25.154C35.13 25.262 35.166 25.37 35.214 25.478C35.274 25.574 35.334 25.658 35.394 25.73C35.466 25.79 35.55 25.82 35.646 25.82V26H33.306V25.82C33.39 25.82 33.468 25.79 33.54 25.73C33.612 25.658 33.672 25.574 33.72 25.478C33.78 25.37 33.822 25.262 33.846 25.154C33.87 25.046 33.882 24.944 33.882 24.848V19.826C33.882 19.658 33.828 19.49 33.72 19.322C33.612 19.154 33.456 19.046 33.252 18.998V18.854L35.07 18.314V19.394C35.178 19.262 35.292 19.136 35.412 19.016C35.532 18.884 35.664 18.77 35.808 18.674C35.964 18.566 36.132 18.482 36.312 18.422C36.492 18.35 36.702 18.314 36.942 18.314C37.11 18.314 37.326 18.35 37.59 18.422C37.854 18.494 38.07 18.572 38.238 18.656L37.698 19.754ZM43.9244 26V25.082L43.8344 25.172C43.5344 25.472 43.1864 25.706 42.7904 25.874C42.4064 26.042 41.9384 26.126 41.3864 26.126C40.9664 26.126 40.6064 26.078 40.3064 25.982C40.0064 25.886 39.7604 25.754 39.5684 25.586C39.3764 25.406 39.2324 25.202 39.1364 24.974C39.0524 24.746 39.0104 24.506 39.0104 24.254C39.0104 23.846 39.1184 23.486 39.3344 23.174C39.5624 22.862 39.8864 22.586 40.3064 22.346C40.7264 22.106 41.2364 21.89 41.8364 21.698C42.4484 21.494 43.1444 21.296 43.9244 21.104C43.9004 20.636 43.8044 20.258 43.6364 19.97C43.4684 19.682 43.2704 19.46 43.0424 19.304C42.8144 19.136 42.5744 19.028 42.3224 18.98C42.0704 18.92 41.8544 18.89 41.6744 18.89C41.3624 18.89 41.0864 18.938 40.8464 19.034C40.6184 19.13 40.4144 19.256 40.2344 19.412C40.0664 19.556 39.9224 19.718 39.8024 19.898C39.6824 20.066 39.5864 20.228 39.5144 20.384H39.3524V19.07C39.4484 19.058 39.5384 19.028 39.6224 18.98C39.7064 18.932 39.8084 18.884 39.9284 18.836C40.1084 18.764 40.3544 18.662 40.6664 18.53C40.9784 18.386 41.4164 18.314 41.9804 18.314C42.6404 18.314 43.1744 18.398 43.5824 18.566C43.9904 18.734 44.3024 18.956 44.5184 19.232C44.7464 19.508 44.8964 19.826 44.9684 20.186C45.0404 20.534 45.0764 20.894 45.0764 21.266V24.83C45.0764 25.07 45.1304 25.298 45.2384 25.514C45.3464 25.718 45.4904 25.82 45.6704 25.82V26H43.9244ZM43.9244 24.29V21.716L43.7444 21.752C43.4564 21.824 43.1024 21.92 42.6824 22.04C42.2744 22.16 41.8844 22.316 41.5124 22.508C41.1404 22.7 40.8224 22.928 40.5584 23.192C40.2944 23.456 40.1624 23.762 40.1624 24.11C40.1624 24.494 40.3184 24.812 40.6304 25.064C40.9424 25.316 41.3504 25.442 41.8544 25.442C42.2504 25.442 42.5984 25.358 42.8984 25.19C43.1984 25.01 43.4744 24.782 43.7264 24.506L43.9244 24.29ZM47.453 26V25.82C47.549 25.82 47.633 25.784 47.705 25.712C47.777 25.64 47.837 25.556 47.885 25.46C47.933 25.364 47.969 25.262 47.993 25.154C48.017 25.034 48.029 24.926 48.029 24.83V19.844C48.029 19.64 47.999 19.448 47.939 19.268C47.879 19.076 47.705 18.974 47.417 18.962V18.8L49.217 18.224V24.83C49.217 24.926 49.229 25.034 49.253 25.154C49.277 25.262 49.313 25.364 49.361 25.46C49.409 25.556 49.469 25.64 49.541 25.712C49.613 25.784 49.697 25.82 49.793 25.82V26H47.453ZM47.543 16.496C47.543 16.256 47.621 16.052 47.777 15.884C47.945 15.716 48.149 15.632 48.389 15.632C48.629 15.632 48.833 15.716 49.001 15.884C49.169 16.052 49.253 16.256 49.253 16.496C49.253 16.736 49.169 16.934 49.001 17.09C48.833 17.246 48.629 17.324 48.389 17.324C48.149 17.324 47.945 17.246 47.777 17.09C47.621 16.934 47.543 16.736 47.543 16.496ZM58.7566 24.83C58.7566 24.926 58.7686 25.034 58.7926 25.154C58.8166 25.262 58.8526 25.364 58.9006 25.46C58.9606 25.556 59.0206 25.64 59.0806 25.712C59.1526 25.784 59.2366 25.82 59.3326 25.82V26H57.0106V25.82C57.0946 25.82 57.1726 25.784 57.2446 25.712C57.3166 25.64 57.3766 25.556 57.4246 25.46C57.4846 25.364 57.5266 25.262 57.5506 25.154C57.5746 25.034 57.5866 24.926 57.5866 24.83V21.482C57.5866 21.05 57.5266 20.672 57.4066 20.348C57.2866 20.024 57.1246 19.754 56.9206 19.538C56.7166 19.322 56.4826 19.166 56.2186 19.07C55.9666 18.962 55.7086 18.908 55.4446 18.908C55.1806 18.908 54.9166 18.962 54.6526 19.07C54.4006 19.178 54.1726 19.322 53.9686 19.502C53.7766 19.67 53.6146 19.874 53.4826 20.114C53.3626 20.342 53.3026 20.582 53.3026 20.834V24.83C53.3026 24.926 53.3146 25.034 53.3386 25.154C53.3626 25.262 53.3986 25.364 53.4466 25.46C53.5066 25.556 53.5666 25.64 53.6266 25.712C53.6986 25.784 53.7826 25.82 53.8786 25.82V26H51.5386V25.82C51.6226 25.82 51.7006 25.784 51.7726 25.712C51.8446 25.64 51.9046 25.556 51.9526 25.46C52.0126 25.364 52.0546 25.262 52.0786 25.154C52.1026 25.034 52.1146 24.926 52.1146 24.83V19.862C52.1146 19.658 52.0846 19.466 52.0246 19.286C51.9646 19.094 51.7906 18.992 51.5026 18.98V18.818L53.3026 18.242V19.232C53.3866 19.136 53.4946 19.034 53.6266 18.926C53.7586 18.806 53.9146 18.698 54.0946 18.602C54.2866 18.494 54.5026 18.41 54.7426 18.35C54.9946 18.278 55.2886 18.242 55.6246 18.242C56.1886 18.242 56.6686 18.338 57.0646 18.53C57.4606 18.722 57.7846 18.974 58.0366 19.286C58.2886 19.586 58.4686 19.922 58.5766 20.294C58.6966 20.654 58.7566 21.008 58.7566 21.356V24.83ZM61.1546 26V25.82C61.2506 25.82 61.3346 25.784 61.4066 25.712C61.4786 25.64 61.5386 25.556 61.5866 25.46C61.6346 25.364 61.6706 25.262 61.6946 25.154C61.7186 25.034 61.7306 24.926 61.7306 24.83V19.844C61.7306 19.64 61.7006 19.448 61.6406 19.268C61.5806 19.076 61.4066 18.974 61.1186 18.962V18.8L62.9186 18.224V24.83C62.9186 24.926 62.9306 25.034 62.9546 25.154C62.9786 25.262 63.0146 25.364 63.0626 25.46C63.1106 25.556 63.1706 25.64 63.2426 25.712C63.3146 25.784 63.3986 25.82 63.4946 25.82V26H61.1546ZM61.2446 16.496C61.2446 16.256 61.3226 16.052 61.4786 15.884C61.6466 15.716 61.8506 15.632 62.0906 15.632C62.3306 15.632 62.5346 15.716 62.7026 15.884C62.8706 16.052 62.9546 16.256 62.9546 16.496C62.9546 16.736 62.8706 16.934 62.7026 17.09C62.5346 17.246 62.3306 17.324 62.0906 17.324C61.8506 17.324 61.6466 17.246 61.4786 17.09C61.3226 16.934 61.2446 16.736 61.2446 16.496ZM72.4582 24.83C72.4582 24.926 72.4702 25.034 72.4942 25.154C72.5182 25.262 72.5542 25.364 72.6022 25.46C72.6622 25.556 72.7222 25.64 72.7822 25.712C72.8542 25.784 72.9382 25.82 73.0342 25.82V26H70.7122V25.82C70.7962 25.82 70.8742 25.784 70.9462 25.712C71.0182 25.64 71.0782 25.556 71.1262 25.46C71.1862 25.364 71.2282 25.262 71.2522 25.154C71.2762 25.034 71.2882 24.926 71.2882 24.83V21.482C71.2882 21.05 71.2282 20.672 71.1082 20.348C70.9882 20.024 70.8262 19.754 70.6222 19.538C70.4182 19.322 70.1842 19.166 69.9202 19.07C69.6682 18.962 69.4102 18.908 69.1462 18.908C68.8822 18.908 68.6182 18.962 68.3542 19.07C68.1022 19.178 67.8742 19.322 67.6702 19.502C67.4782 19.67 67.3162 19.874 67.1842 20.114C67.0642 20.342 67.0042 20.582 67.0042 20.834V24.83C67.0042 24.926 67.0162 25.034 67.0402 25.154C67.0642 25.262 67.1002 25.364 67.1482 25.46C67.2082 25.556 67.2682 25.64 67.3282 25.712C67.4002 25.784 67.4842 25.82 67.5802 25.82V26H65.2402V25.82C65.3242 25.82 65.4022 25.784 65.4742 25.712C65.5462 25.64 65.6062 25.556 65.6542 25.46C65.7142 25.364 65.7562 25.262 65.7802 25.154C65.8042 25.034 65.8162 24.926 65.8162 24.83V19.862C65.8162 19.658 65.7862 19.466 65.7262 19.286C65.6662 19.094 65.4922 18.992 65.2042 18.98V18.818L67.0042 18.242V19.232C67.0882 19.136 67.1962 19.034 67.3282 18.926C67.4602 18.806 67.6162 18.698 67.7962 18.602C67.9882 18.494 68.2042 18.41 68.4442 18.35C68.6962 18.278 68.9902 18.242 69.3262 18.242C69.8902 18.242 70.3702 18.338 70.7662 18.53C71.1622 18.722 71.4862 18.974 71.7382 19.286C71.9902 19.586 72.1702 19.922 72.2782 20.294C72.3982 20.654 72.4582 21.008 72.4582 21.356V24.83ZM78.3483 29.348C78.7083 29.348 79.0503 29.312 79.3743 29.24C79.6983 29.18 79.9803 29.09 80.2203 28.97C80.4723 28.85 80.6703 28.706 80.8143 28.538C80.9583 28.37 81.0303 28.19 81.0303 27.998C81.0303 27.794 80.9283 27.62 80.7243 27.476C80.5323 27.332 80.2683 27.206 79.9323 27.098C79.5963 26.99 79.2063 26.894 78.7623 26.81C78.3183 26.738 77.8563 26.66 77.3763 26.576L76.4583 26.414C76.1823 26.63 75.9903 26.858 75.8823 27.098C75.7743 27.338 75.7203 27.548 75.7203 27.728C75.7203 27.98 75.7863 28.202 75.9183 28.394C76.0623 28.598 76.2483 28.772 76.4763 28.916C76.7163 29.06 76.9923 29.168 77.3043 29.24C77.6283 29.312 77.9763 29.348 78.3483 29.348ZM79.3383 25.748C79.8183 25.82 80.2143 25.916 80.5263 26.036C80.8503 26.156 81.1083 26.294 81.3003 26.45C81.4923 26.618 81.6243 26.798 81.6963 26.99C81.7683 27.194 81.8043 27.41 81.8043 27.638C81.8043 28.046 81.6903 28.4 81.4623 28.7C81.2463 29 80.9583 29.246 80.5983 29.438C80.2503 29.642 79.8483 29.792 79.3923 29.888C78.9483 29.984 78.4923 30.032 78.0243 30.032C77.5683 30.032 77.1303 29.984 76.7103 29.888C76.2903 29.804 75.9183 29.672 75.5943 29.492C75.2703 29.312 75.0123 29.084 74.8203 28.808C74.6283 28.544 74.5323 28.238 74.5323 27.89C74.5323 27.578 74.6283 27.278 74.8203 26.99C75.0123 26.714 75.3243 26.438 75.7563 26.162C75.3363 25.946 75.0123 25.658 74.7843 25.298C74.5683 24.926 74.4603 24.548 74.4603 24.164C74.4603 23.936 74.5143 23.714 74.6223 23.498C74.7303 23.27 74.9043 23.06 75.1443 22.868C74.9403 22.628 74.7963 22.388 74.7123 22.148C74.6283 21.908 74.5863 21.65 74.5863 21.374C74.5863 20.942 74.6763 20.54 74.8563 20.168C75.0363 19.796 75.2823 19.472 75.5943 19.196C75.9063 18.92 76.2723 18.704 76.6923 18.548C77.1123 18.392 77.5623 18.314 78.0423 18.314C78.5463 18.314 79.0263 18.404 79.4823 18.584C79.9383 18.752 80.3223 18.974 80.6343 19.25H81.9303V19.898H81.1023C81.1863 20.078 81.2703 20.294 81.3543 20.546C81.4383 20.786 81.4803 21.038 81.4803 21.302C81.4803 21.686 81.3903 22.052 81.2103 22.4C81.0303 22.736 80.7783 23.036 80.4543 23.3C80.1423 23.552 79.7703 23.756 79.3383 23.912C78.9183 24.056 78.4683 24.128 77.9883 24.128C77.5443 24.128 77.1123 24.062 76.6923 23.93C76.2723 23.798 75.9003 23.606 75.5763 23.354C75.4443 23.438 75.3543 23.546 75.3063 23.678C75.2583 23.798 75.2343 23.924 75.2343 24.056C75.2343 24.44 75.4083 24.74 75.7563 24.956C76.1043 25.16 76.5483 25.304 77.0883 25.388L79.3383 25.748ZM77.8263 18.944C77.5383 18.944 77.2683 18.998 77.0163 19.106C76.7643 19.202 76.5423 19.34 76.3503 19.52C76.1583 19.7 76.0023 19.922 75.8823 20.186C75.7743 20.438 75.7203 20.726 75.7203 21.05C75.7203 21.446 75.7983 21.8 75.9543 22.112C76.1223 22.424 76.3323 22.682 76.5843 22.886C76.8363 23.09 77.1123 23.246 77.4123 23.354C77.7243 23.462 78.0183 23.516 78.2943 23.516C78.5943 23.516 78.8643 23.462 79.1043 23.354C79.3563 23.234 79.5723 23.078 79.7523 22.886C79.9323 22.682 80.0703 22.448 80.1663 22.184C80.2623 21.92 80.3103 21.644 80.3103 21.356C80.3103 20.996 80.2383 20.666 80.0943 20.366C79.9503 20.066 79.7583 19.814 79.5183 19.61C79.2903 19.394 79.0263 19.232 78.7263 19.124C78.4263 19.004 78.1263 18.944 77.8263 18.944Z" fill="black"/>
<line y1="39.5" x2="126" y2="39.5" stroke="black"/>
<line x1="62" y1="0.5" x2="125" y2="0.5" stroke="black"/>
<line x1="125.5" y1="40" x2="125.5" stroke="black"/>
</svg>
