<svg width="126" height="40" viewBox="0 0 126 40" fill="none" xmlns="http://www.w3.org/2000/svg">
<path fill-rule="evenodd" clip-rule="evenodd" d="M98.1875 21.0596C98.1875 20.9021 98.2501 20.7511 98.3614 20.6397C98.4728 20.5284 98.6238 20.4658 98.7813 20.4658L112.785 20.4658L109.048 16.7299C108.937 16.6184 108.874 16.4672 108.874 16.3096C108.874 16.1519 108.937 16.0007 109.048 15.8892C109.16 15.7777 109.311 15.7151 109.469 15.7151C109.626 15.7151 109.778 15.7777 109.889 15.8892L114.639 20.6392C114.694 20.6943 114.738 20.7599 114.768 20.832C114.798 20.9041 114.814 20.9815 114.814 21.0596C114.814 21.1377 114.798 21.215 114.768 21.2871C114.738 21.3593 114.694 21.4248 114.639 21.4799L109.889 26.2299C109.778 26.3414 109.626 26.4041 109.469 26.4041C109.311 26.4041 109.16 26.3414 109.048 26.2299C108.937 26.1184 108.874 25.9672 108.874 25.8096C108.874 25.6519 108.937 25.5007 109.048 25.3892L112.785 21.6533L98.7813 21.6533C98.6238 21.6533 98.4728 21.5907 98.3614 21.4794C98.2501 21.368 98.1875 21.217 98.1875 21.0596V21.0596Z" fill="black"/>
<path d="M19.7531 14.12H22.3271V14.3H22.2371C22.1531 14.3 22.0751 14.336 22.0031 14.408C21.9311 14.468 21.8711 14.546 21.8231 14.642C21.7751 14.726 21.7331 14.828 21.6971 14.948C21.6731 15.056 21.6611 15.152 21.6611 15.236V24.83C21.6611 24.926 21.6731 25.034 21.6971 25.154C21.7211 25.262 21.7571 25.364 21.8051 25.46C21.8651 25.556 21.9251 25.64 21.9851 25.712C22.0571 25.784 22.1411 25.82 22.2371 25.82H22.3271V26H19.7531V25.82H19.8431C19.9391 25.82 20.0231 25.79 20.0951 25.73C20.1671 25.658 20.2271 25.574 20.2751 25.478C20.3351 25.37 20.3771 25.262 20.4011 25.154C20.4251 25.034 20.4371 24.926 20.4371 24.83V15.236C20.4371 15.152 20.4251 15.056 20.4011 14.948C20.3771 14.84 20.3351 14.738 20.2751 14.642C20.2271 14.546 20.1671 14.468 20.0951 14.408C20.0231 14.336 19.9391 14.3 19.8431 14.3H19.7531V14.12ZM31.0961 24.83C31.0961 24.926 31.1081 25.034 31.1321 25.154C31.1561 25.262 31.1921 25.364 31.2401 25.46C31.3001 25.556 31.3601 25.64 31.4201 25.712C31.4921 25.784 31.5761 25.82 31.6721 25.82V26H29.3501V25.82C29.4341 25.82 29.5121 25.784 29.5841 25.712C29.6561 25.64 29.7161 25.556 29.7641 25.46C29.8241 25.364 29.8661 25.262 29.8901 25.154C29.9141 25.034 29.9261 24.926 29.9261 24.83V21.482C29.9261 21.05 29.8661 20.672 29.7461 20.348C29.6261 20.024 29.4641 19.754 29.2601 19.538C29.0561 19.322 28.8221 19.166 28.5581 19.07C28.3061 18.962 28.0481 18.908 27.7841 18.908C27.5201 18.908 27.2561 18.962 26.9921 19.07C26.7401 19.178 26.5121 19.322 26.3081 19.502C26.1161 19.67 25.9541 19.874 25.8221 20.114C25.7021 20.342 25.6421 20.582 25.6421 20.834V24.83C25.6421 24.926 25.6541 25.034 25.6781 25.154C25.7021 25.262 25.7381 25.364 25.7861 25.46C25.8461 25.556 25.9061 25.64 25.9661 25.712C26.0381 25.784 26.1221 25.82 26.2181 25.82V26H23.8781V25.82C23.9621 25.82 24.0401 25.784 24.1121 25.712C24.1841 25.64 24.2441 25.556 24.2921 25.46C24.3521 25.364 24.3941 25.262 24.4181 25.154C24.4421 25.034 24.4541 24.926 24.4541 24.83V19.862C24.4541 19.658 24.4241 19.466 24.3641 19.286C24.3041 19.094 24.1301 18.992 23.8421 18.98V18.818L25.6421 18.242V19.232C25.7261 19.136 25.8341 19.034 25.9661 18.926C26.0981 18.806 26.2541 18.698 26.4341 18.602C26.6261 18.494 26.8421 18.41 27.0821 18.35C27.3341 18.278 27.6281 18.242 27.9641 18.242C28.5281 18.242 29.0081 18.338 29.4041 18.53C29.8001 18.722 30.1241 18.974 30.3761 19.286C30.6281 19.586 30.8081 19.922 30.9161 20.294C31.0361 20.654 31.0961 21.008 31.0961 21.356V24.83ZM39.0921 23.948C39.0921 24.26 39.0141 24.548 38.8581 24.812C38.7021 25.076 38.4861 25.31 38.2101 25.514C37.9461 25.706 37.6341 25.862 37.2741 25.982C36.9141 26.09 36.5241 26.144 36.1041 26.144C35.5881 26.144 35.1681 26.078 34.8441 25.946C34.5201 25.802 34.2441 25.658 34.0161 25.514C33.8601 25.418 33.7161 25.34 33.5841 25.28C33.4521 25.208 33.3081 25.172 33.1521 25.172V23.804H33.3321C33.3681 23.972 33.4701 24.158 33.6381 24.362C33.8181 24.554 34.0281 24.734 34.2681 24.902C34.5201 25.07 34.7901 25.214 35.0781 25.334C35.3781 25.442 35.6781 25.496 35.9781 25.496C36.1941 25.496 36.4161 25.472 36.6441 25.424C36.8721 25.376 37.0761 25.298 37.2561 25.19C37.4481 25.082 37.6041 24.95 37.7241 24.794C37.8561 24.626 37.9221 24.428 37.9221 24.2C37.9221 23.972 37.8561 23.774 37.7241 23.606C37.5921 23.438 37.4241 23.294 37.2201 23.174C37.0161 23.042 36.7821 22.928 36.5181 22.832C36.2541 22.736 35.9901 22.646 35.7261 22.562C35.4141 22.466 35.0961 22.358 34.7721 22.238C34.4601 22.118 34.1781 21.98 33.9261 21.824C33.6741 21.656 33.4701 21.458 33.3141 21.23C33.1581 20.99 33.0801 20.708 33.0801 20.384C33.0801 20.108 33.1281 19.844 33.2241 19.592C33.3321 19.34 33.5001 19.124 33.7281 18.944C33.9681 18.752 34.2741 18.602 34.6461 18.494C35.0181 18.374 35.4681 18.314 35.9961 18.314C36.4641 18.314 36.8241 18.356 37.0761 18.44C37.3401 18.512 37.5561 18.59 37.7241 18.674C37.8321 18.734 37.9401 18.782 38.0481 18.818C38.1561 18.842 38.2761 18.854 38.4081 18.854V20.114H38.2641C38.0481 19.718 37.7181 19.418 37.2741 19.214C36.8301 19.01 36.3741 18.908 35.9061 18.908C35.6061 18.908 35.3481 18.95 35.1321 19.034C34.9161 19.106 34.7361 19.202 34.5921 19.322C34.4601 19.43 34.3581 19.556 34.2861 19.7C34.2261 19.844 34.1961 19.988 34.1961 20.132C34.1961 20.336 34.2501 20.51 34.3581 20.654C34.4781 20.798 34.6341 20.924 34.8261 21.032C35.0301 21.14 35.2521 21.242 35.4921 21.338C35.7441 21.434 36.0081 21.524 36.2841 21.608C36.6201 21.716 36.9561 21.836 37.2921 21.968C37.6281 22.088 37.9281 22.238 38.1921 22.418C38.4561 22.598 38.6721 22.814 38.8401 23.066C39.0081 23.306 39.0921 23.6 39.0921 23.948ZM42.2085 19.052V23.39C42.2085 23.702 42.2145 23.984 42.2265 24.236C42.2385 24.488 42.2685 24.698 42.3165 24.866C42.3645 25.034 42.4365 25.166 42.5325 25.262C42.6285 25.346 42.7605 25.388 42.9285 25.388C43.1805 25.388 43.4145 25.268 43.6305 25.028C43.8585 24.788 44.0025 24.5 44.0625 24.164H44.2245V25.478C44.1165 25.478 44.0265 25.514 43.9545 25.586C43.8585 25.67 43.7205 25.76 43.5405 25.856C43.3725 25.952 43.1145 26 42.7665 26C42.3345 26 41.9985 25.916 41.7585 25.748C41.5185 25.58 41.3445 25.358 41.2365 25.082C41.1285 24.806 41.0625 24.5 41.0385 24.164C41.0265 23.828 41.0205 23.486 41.0205 23.138V19.052H40.0125V18.44H41.0205V16.838C41.0205 16.634 40.9905 16.448 40.9305 16.28C40.8825 16.1 40.7085 16.004 40.4085 15.992V15.812L42.2085 15.236V18.44H44.2245V19.052H42.2085ZM50.1313 26V25.082L50.0413 25.172C49.7413 25.472 49.3933 25.706 48.9973 25.874C48.6133 26.042 48.1453 26.126 47.5933 26.126C47.1733 26.126 46.8133 26.078 46.5133 25.982C46.2133 25.886 45.9673 25.754 45.7753 25.586C45.5833 25.406 45.4393 25.202 45.3433 24.974C45.2593 24.746 45.2173 24.506 45.2173 24.254C45.2173 23.846 45.3253 23.486 45.5413 23.174C45.7693 22.862 46.0933 22.586 46.5133 22.346C46.9333 22.106 47.4433 21.89 48.0433 21.698C48.6553 21.494 49.3513 21.296 50.1313 21.104C50.1073 20.636 50.0113 20.258 49.8433 19.97C49.6753 19.682 49.4773 19.46 49.2493 19.304C49.0213 19.136 48.7813 19.028 48.5293 18.98C48.2773 18.92 48.0613 18.89 47.8813 18.89C47.5693 18.89 47.2933 18.938 47.0533 19.034C46.8253 19.13 46.6213 19.256 46.4413 19.412C46.2733 19.556 46.1293 19.718 46.0093 19.898C45.8893 20.066 45.7933 20.228 45.7213 20.384H45.5593V19.07C45.6553 19.058 45.7453 19.028 45.8293 18.98C45.9133 18.932 46.0153 18.884 46.1353 18.836C46.3153 18.764 46.5613 18.662 46.8733 18.53C47.1853 18.386 47.6233 18.314 48.1873 18.314C48.8473 18.314 49.3813 18.398 49.7893 18.566C50.1973 18.734 50.5093 18.956 50.7253 19.232C50.9533 19.508 51.1033 19.826 51.1753 20.186C51.2473 20.534 51.2833 20.894 51.2833 21.266V24.83C51.2833 25.07 51.3373 25.298 51.4453 25.514C51.5533 25.718 51.6973 25.82 51.8773 25.82V26H50.1313ZM50.1313 24.29V21.716L49.9513 21.752C49.6633 21.824 49.3093 21.92 48.8893 22.04C48.4813 22.16 48.0913 22.316 47.7193 22.508C47.3473 22.7 47.0293 22.928 46.7653 23.192C46.5013 23.456 46.3693 23.762 46.3693 24.11C46.3693 24.494 46.5253 24.812 46.8373 25.064C47.1493 25.316 47.5573 25.442 48.0613 25.442C48.4573 25.442 48.8053 25.358 49.1053 25.19C49.4053 25.01 49.6813 24.782 49.9333 24.506L50.1313 24.29ZM57.1519 29.348C57.5119 29.348 57.8539 29.312 58.1779 29.24C58.5019 29.18 58.7839 29.09 59.0239 28.97C59.2759 28.85 59.4739 28.706 59.6179 28.538C59.7619 28.37 59.8339 28.19 59.8339 27.998C59.8339 27.794 59.7319 27.62 59.5279 27.476C59.3359 27.332 59.0719 27.206 58.7359 27.098C58.3999 26.99 58.0099 26.894 57.5659 26.81C57.1219 26.738 56.6599 26.66 56.1799 26.576L55.2619 26.414C54.9859 26.63 54.7939 26.858 54.6859 27.098C54.5779 27.338 54.5239 27.548 54.5239 27.728C54.5239 27.98 54.5899 28.202 54.7219 28.394C54.8659 28.598 55.0519 28.772 55.2799 28.916C55.5199 29.06 55.7959 29.168 56.1079 29.24C56.4319 29.312 56.7799 29.348 57.1519 29.348ZM58.1419 25.748C58.6219 25.82 59.0179 25.916 59.3299 26.036C59.6539 26.156 59.9119 26.294 60.1039 26.45C60.2959 26.618 60.4279 26.798 60.4999 26.99C60.5719 27.194 60.6079 27.41 60.6079 27.638C60.6079 28.046 60.4939 28.4 60.2659 28.7C60.0499 29 59.7619 29.246 59.4019 29.438C59.0539 29.642 58.6519 29.792 58.1959 29.888C57.7519 29.984 57.2959 30.032 56.8279 30.032C56.3719 30.032 55.9339 29.984 55.5139 29.888C55.0939 29.804 54.7219 29.672 54.3979 29.492C54.0739 29.312 53.8159 29.084 53.6239 28.808C53.4319 28.544 53.3359 28.238 53.3359 27.89C53.3359 27.578 53.4319 27.278 53.6239 26.99C53.8159 26.714 54.1279 26.438 54.5599 26.162C54.1399 25.946 53.8159 25.658 53.5879 25.298C53.3719 24.926 53.2639 24.548 53.2639 24.164C53.2639 23.936 53.3179 23.714 53.4259 23.498C53.5339 23.27 53.7079 23.06 53.9479 22.868C53.7439 22.628 53.5999 22.388 53.5159 22.148C53.4319 21.908 53.3899 21.65 53.3899 21.374C53.3899 20.942 53.4799 20.54 53.6599 20.168C53.8399 19.796 54.0859 19.472 54.3979 19.196C54.7099 18.92 55.0759 18.704 55.4959 18.548C55.9159 18.392 56.3659 18.314 56.8459 18.314C57.3499 18.314 57.8299 18.404 58.2859 18.584C58.7419 18.752 59.1259 18.974 59.4379 19.25H60.7339V19.898H59.9059C59.9899 20.078 60.0739 20.294 60.1579 20.546C60.2419 20.786 60.2839 21.038 60.2839 21.302C60.2839 21.686 60.1939 22.052 60.0139 22.4C59.8339 22.736 59.5819 23.036 59.2579 23.3C58.9459 23.552 58.5739 23.756 58.1419 23.912C57.7219 24.056 57.2719 24.128 56.7919 24.128C56.3479 24.128 55.9159 24.062 55.4959 23.93C55.0759 23.798 54.7039 23.606 54.3799 23.354C54.2479 23.438 54.1579 23.546 54.1099 23.678C54.0619 23.798 54.0379 23.924 54.0379 24.056C54.0379 24.44 54.2119 24.74 54.5599 24.956C54.9079 25.16 55.3519 25.304 55.8919 25.388L58.1419 25.748ZM56.6299 18.944C56.3419 18.944 56.0719 18.998 55.8199 19.106C55.5679 19.202 55.3459 19.34 55.1539 19.52C54.9619 19.7 54.8059 19.922 54.6859 20.186C54.5779 20.438 54.5239 20.726 54.5239 21.05C54.5239 21.446 54.6019 21.8 54.7579 22.112C54.9259 22.424 55.1359 22.682 55.3879 22.886C55.6399 23.09 55.9159 23.246 56.2159 23.354C56.5279 23.462 56.8219 23.516 57.0979 23.516C57.3979 23.516 57.6679 23.462 57.9079 23.354C58.1599 23.234 58.3759 23.078 58.5559 22.886C58.7359 22.682 58.8739 22.448 58.9699 22.184C59.0659 21.92 59.1139 21.644 59.1139 21.356C59.1139 20.996 59.0419 20.666 58.8979 20.366C58.7539 20.066 58.5619 19.814 58.3219 19.61C58.0939 19.394 57.8299 19.232 57.5299 19.124C57.2299 19.004 56.9299 18.944 56.6299 18.944ZM66.514 19.754C66.37 19.514 66.22 19.364 66.064 19.304C65.908 19.244 65.728 19.214 65.524 19.214C65.392 19.214 65.248 19.244 65.092 19.304C64.948 19.364 64.804 19.442 64.66 19.538C64.516 19.634 64.372 19.742 64.228 19.862C64.096 19.97 63.982 20.072 63.886 20.168V24.848C63.886 24.944 63.898 25.046 63.922 25.154C63.946 25.262 63.982 25.37 64.03 25.478C64.09 25.574 64.15 25.658 64.21 25.73C64.282 25.79 64.366 25.82 64.462 25.82V26H62.122V25.82C62.206 25.82 62.284 25.79 62.356 25.73C62.428 25.658 62.488 25.574 62.536 25.478C62.596 25.37 62.638 25.262 62.662 25.154C62.686 25.046 62.698 24.944 62.698 24.848V19.826C62.698 19.658 62.644 19.49 62.536 19.322C62.428 19.154 62.272 19.046 62.068 18.998V18.854L63.886 18.314V19.394C63.994 19.262 64.108 19.136 64.228 19.016C64.348 18.884 64.48 18.77 64.624 18.674C64.78 18.566 64.948 18.482 65.128 18.422C65.308 18.35 65.518 18.314 65.758 18.314C65.926 18.314 66.142 18.35 66.406 18.422C66.67 18.494 66.886 18.572 67.054 18.656L66.514 19.754ZM72.7405 26V25.082L72.6505 25.172C72.3505 25.472 72.0025 25.706 71.6065 25.874C71.2225 26.042 70.7545 26.126 70.2025 26.126C69.7825 26.126 69.4225 26.078 69.1225 25.982C68.8225 25.886 68.5765 25.754 68.3845 25.586C68.1925 25.406 68.0485 25.202 67.9525 24.974C67.8685 24.746 67.8265 24.506 67.8265 24.254C67.8265 23.846 67.9345 23.486 68.1505 23.174C68.3785 22.862 68.7025 22.586 69.1225 22.346C69.5425 22.106 70.0525 21.89 70.6525 21.698C71.2645 21.494 71.9605 21.296 72.7405 21.104C72.7165 20.636 72.6205 20.258 72.4525 19.97C72.2845 19.682 72.0865 19.46 71.8585 19.304C71.6305 19.136 71.3905 19.028 71.1385 18.98C70.8865 18.92 70.6705 18.89 70.4905 18.89C70.1785 18.89 69.9025 18.938 69.6625 19.034C69.4345 19.13 69.2305 19.256 69.0505 19.412C68.8825 19.556 68.7385 19.718 68.6185 19.898C68.4985 20.066 68.4025 20.228 68.3305 20.384H68.1685V19.07C68.2645 19.058 68.3545 19.028 68.4385 18.98C68.5225 18.932 68.6245 18.884 68.7445 18.836C68.9245 18.764 69.1705 18.662 69.4825 18.53C69.7945 18.386 70.2325 18.314 70.7965 18.314C71.4565 18.314 71.9905 18.398 72.3985 18.566C72.8065 18.734 73.1185 18.956 73.3345 19.232C73.5625 19.508 73.7125 19.826 73.7845 20.186C73.8565 20.534 73.8925 20.894 73.8925 21.266V24.83C73.8925 25.07 73.9465 25.298 74.0545 25.514C74.1625 25.718 74.3065 25.82 74.4865 25.82V26H72.7405ZM72.7405 24.29V21.716L72.5605 21.752C72.2725 21.824 71.9185 21.92 71.4985 22.04C71.0905 22.16 70.7005 22.316 70.3285 22.508C69.9565 22.7 69.6385 22.928 69.3745 23.192C69.1105 23.456 68.9785 23.762 68.9785 24.11C68.9785 24.494 69.1345 24.812 69.4465 25.064C69.7585 25.316 70.1665 25.442 70.6705 25.442C71.0665 25.442 71.4145 25.358 71.7145 25.19C72.0145 25.01 72.2905 24.782 72.5425 24.506L72.7405 24.29ZM87.537 24.83C87.537 24.926 87.549 25.034 87.573 25.154C87.597 25.262 87.633 25.364 87.681 25.46C87.729 25.556 87.783 25.64 87.843 25.712C87.915 25.784 87.999 25.82 88.095 25.82V26H85.755V25.82C85.851 25.82 85.935 25.784 86.007 25.712C86.079 25.64 86.139 25.556 86.187 25.46C86.247 25.364 86.289 25.262 86.313 25.154C86.337 25.034 86.349 24.926 86.349 24.83V20.942C86.349 20.666 86.307 20.402 86.223 20.15C86.151 19.898 86.037 19.682 85.881 19.502C85.725 19.31 85.533 19.16 85.305 19.052C85.077 18.932 84.819 18.872 84.531 18.872C84.207 18.872 83.925 18.95 83.685 19.106C83.457 19.25 83.265 19.43 83.109 19.646C82.965 19.862 82.857 20.084 82.785 20.312C82.713 20.528 82.677 20.708 82.677 20.852V24.83C82.677 24.926 82.689 25.034 82.713 25.154C82.737 25.262 82.773 25.364 82.821 25.46C82.881 25.556 82.941 25.64 83.001 25.712C83.073 25.784 83.157 25.82 83.253 25.82V26H80.931V25.82C81.015 25.82 81.093 25.784 81.165 25.712C81.237 25.64 81.297 25.556 81.345 25.46C81.405 25.364 81.447 25.262 81.471 25.154C81.495 25.034 81.507 24.926 81.507 24.83V20.834C81.507 20.546 81.453 20.282 81.345 20.042C81.249 19.79 81.111 19.58 80.931 19.412C80.763 19.244 80.565 19.112 80.337 19.016C80.121 18.92 79.899 18.872 79.671 18.872C79.359 18.872 79.083 18.932 78.843 19.052C78.615 19.172 78.423 19.322 78.267 19.502C78.123 19.682 78.009 19.88 77.925 20.096C77.853 20.3 77.817 20.498 77.817 20.69V24.83C77.817 24.926 77.829 25.034 77.853 25.154C77.877 25.262 77.913 25.364 77.961 25.46C78.021 25.556 78.081 25.64 78.141 25.712C78.213 25.784 78.297 25.82 78.393 25.82V26H76.071V25.82C76.155 25.82 76.233 25.784 76.305 25.712C76.377 25.64 76.437 25.556 76.485 25.46C76.545 25.364 76.587 25.262 76.611 25.154C76.635 25.034 76.647 24.926 76.647 24.83V20.024C76.647 19.928 76.641 19.82 76.629 19.7C76.617 19.58 76.593 19.466 76.557 19.358C76.521 19.25 76.461 19.16 76.377 19.088C76.293 19.016 76.179 18.98 76.035 18.98V18.818L77.817 18.224V19.142C77.997 18.938 78.243 18.74 78.555 18.548C78.879 18.356 79.299 18.26 79.815 18.26C80.151 18.26 80.451 18.308 80.715 18.404C80.979 18.5 81.207 18.626 81.399 18.782C81.603 18.926 81.777 19.094 81.921 19.286C82.065 19.478 82.185 19.664 82.281 19.844C82.377 19.664 82.491 19.484 82.623 19.304C82.755 19.112 82.911 18.938 83.091 18.782C83.283 18.626 83.505 18.5 83.757 18.404C84.021 18.308 84.327 18.26 84.675 18.26C85.347 18.26 85.875 18.38 86.259 18.62C86.643 18.86 86.925 19.148 87.105 19.484C87.297 19.82 87.417 20.174 87.465 20.546C87.513 20.906 87.537 21.212 87.537 21.464V24.83Z" fill="black"/>
<line y1="39.5" x2="126" y2="39.5" stroke="black"/>
<line x1="62" y1="0.5" x2="125" y2="0.5" stroke="black"/>
<line x1="125.5" y1="40" x2="125.5" stroke="black"/>
</svg>
