<svg width="145" height="40" viewBox="0 0 145 40" fill="none" xmlns="http://www.w3.org/2000/svg">
<path fill-rule="evenodd" clip-rule="evenodd" d="M117.188 20.0596C117.188 19.9021 117.25 19.7511 117.361 19.6397C117.473 19.5284 117.624 19.4658 117.781 19.4658L131.785 19.4658L128.048 15.7299C127.937 15.6184 127.874 15.4672 127.874 15.3096C127.874 15.1519 127.937 15.0007 128.048 14.8892C128.16 14.7777 128.311 14.7151 128.469 14.7151C128.626 14.7151 128.778 14.7777 128.889 14.8892L133.639 19.6392C133.694 19.6943 133.738 19.7599 133.768 19.832C133.798 19.9041 133.814 19.9815 133.814 20.0596C133.814 20.1377 133.798 20.215 133.768 20.2871C133.738 20.3593 133.694 20.4248 133.639 20.4799L128.889 25.2299C128.778 25.3414 128.626 25.4041 128.469 25.4041C128.311 25.4041 128.16 25.3414 128.048 25.2299C127.937 25.1184 127.874 24.9672 127.874 24.8096C127.874 24.6519 127.937 24.5007 128.048 24.3892L131.785 20.6533L117.781 20.6533C117.624 20.6533 117.473 20.5907 117.361 20.4794C117.25 20.368 117.188 20.217 117.188 20.0596V20.0596Z" fill="black"/>
<path d="M24.6178 14.588C23.7298 14.588 22.9558 14.75 22.2958 15.074C21.6478 15.386 21.1078 15.8 20.6758 16.316C20.2438 16.82 19.9198 17.39 19.7038 18.026C19.4998 18.662 19.3978 19.292 19.3978 19.916C19.3978 20.624 19.5358 21.32 19.8118 22.004C20.0878 22.676 20.4658 23.276 20.9458 23.804C21.4378 24.32 22.0078 24.74 22.6558 25.064C23.3038 25.376 24.0058 25.532 24.7618 25.532C24.9778 25.532 25.2298 25.508 25.5178 25.46C25.8178 25.412 26.1118 25.322 26.3998 25.19C26.6878 25.046 26.9518 24.848 27.1918 24.596C27.4438 24.344 27.6358 24.014 27.7678 23.606H27.9478V25.604C27.7678 25.604 27.5758 25.628 27.3718 25.676C27.1798 25.724 26.9638 25.778 26.7238 25.838C26.4118 25.922 26.0638 26 25.6798 26.072C25.3078 26.144 24.9118 26.18 24.4918 26.18C23.4478 26.18 22.5298 26 21.7378 25.64C20.9458 25.28 20.2858 24.812 19.7578 24.236C19.2298 23.66 18.8338 23.012 18.5698 22.292C18.3058 21.56 18.1738 20.822 18.1738 20.078C18.1738 19.334 18.3058 18.596 18.5698 17.864C18.8338 17.132 19.2358 16.478 19.7758 15.902C20.3158 15.314 20.9938 14.84 21.8098 14.48C22.6258 14.12 23.5858 13.94 24.6898 13.94C25.0858 13.94 25.4398 13.976 25.7518 14.048C26.0758 14.12 26.3638 14.192 26.6158 14.264C26.7958 14.324 26.9578 14.372 27.1018 14.408C27.2578 14.432 27.4078 14.444 27.5518 14.444V16.442H27.3718C27.2998 16.07 27.1678 15.764 26.9758 15.524C26.7838 15.272 26.5558 15.08 26.2918 14.948C26.0398 14.816 25.7638 14.726 25.4638 14.678C25.1758 14.618 24.8938 14.588 24.6178 14.588ZM33.0787 26.126C32.4787 26.126 31.9387 26.03 31.4587 25.838C30.9787 25.634 30.5647 25.364 30.2167 25.028C29.8807 24.68 29.6167 24.272 29.4247 23.804C29.2447 23.336 29.1547 22.826 29.1547 22.274C29.1547 21.686 29.2567 21.152 29.4607 20.672C29.6647 20.18 29.9467 19.76 30.3067 19.412C30.6667 19.064 31.0927 18.794 31.5847 18.602C32.0767 18.41 32.6107 18.314 33.1867 18.314C33.7627 18.314 34.2907 18.41 34.7707 18.602C35.2507 18.782 35.6647 19.04 36.0127 19.376C36.3607 19.712 36.6307 20.114 36.8227 20.582C37.0147 21.038 37.1107 21.542 37.1107 22.094C37.1107 22.61 37.0207 23.114 36.8407 23.606C36.6727 24.086 36.4147 24.512 36.0667 24.884C35.7307 25.256 35.3107 25.556 34.8067 25.784C34.3147 26.012 33.7387 26.126 33.0787 26.126ZM32.9707 18.908C32.5387 18.932 32.1547 19.04 31.8187 19.232C31.4947 19.412 31.2187 19.652 30.9907 19.952C30.7747 20.24 30.6067 20.57 30.4867 20.942C30.3787 21.314 30.3247 21.692 30.3247 22.076C30.3247 22.52 30.3907 22.952 30.5227 23.372C30.6667 23.78 30.8647 24.146 31.1167 24.47C31.3807 24.794 31.6927 25.052 32.0527 25.244C32.4127 25.436 32.8147 25.532 33.2587 25.532C33.7027 25.532 34.0927 25.436 34.4287 25.244C34.7767 25.052 35.0647 24.806 35.2927 24.506C35.5207 24.194 35.6887 23.846 35.7967 23.462C35.9167 23.078 35.9767 22.694 35.9767 22.31C35.9767 21.914 35.9167 21.518 35.7967 21.122C35.6767 20.714 35.4907 20.348 35.2387 20.024C34.9867 19.688 34.6687 19.418 34.2847 19.214C33.9127 19.01 33.4747 18.908 32.9707 18.908ZM45.7585 24.83C45.7585 24.926 45.7705 25.034 45.7945 25.154C45.8185 25.262 45.8545 25.364 45.9025 25.46C45.9625 25.556 46.0225 25.64 46.0825 25.712C46.1545 25.784 46.2385 25.82 46.3345 25.82V26H44.0125V25.82C44.0965 25.82 44.1745 25.784 44.2465 25.712C44.3185 25.64 44.3785 25.556 44.4265 25.46C44.4865 25.364 44.5285 25.262 44.5525 25.154C44.5765 25.034 44.5885 24.926 44.5885 24.83V21.482C44.5885 21.05 44.5285 20.672 44.4085 20.348C44.2885 20.024 44.1265 19.754 43.9225 19.538C43.7185 19.322 43.4845 19.166 43.2205 19.07C42.9685 18.962 42.7105 18.908 42.4465 18.908C42.1825 18.908 41.9185 18.962 41.6545 19.07C41.4025 19.178 41.1745 19.322 40.9705 19.502C40.7785 19.67 40.6165 19.874 40.4845 20.114C40.3645 20.342 40.3045 20.582 40.3045 20.834V24.83C40.3045 24.926 40.3165 25.034 40.3405 25.154C40.3645 25.262 40.4005 25.364 40.4485 25.46C40.5085 25.556 40.5685 25.64 40.6285 25.712C40.7005 25.784 40.7845 25.82 40.8805 25.82V26H38.5405V25.82C38.6245 25.82 38.7025 25.784 38.7745 25.712C38.8465 25.64 38.9065 25.556 38.9545 25.46C39.0145 25.364 39.0565 25.262 39.0805 25.154C39.1045 25.034 39.1165 24.926 39.1165 24.83V19.862C39.1165 19.658 39.0865 19.466 39.0265 19.286C38.9665 19.094 38.7925 18.992 38.5045 18.98V18.818L40.3045 18.242V19.232C40.3885 19.136 40.4965 19.034 40.6285 18.926C40.7605 18.806 40.9165 18.698 41.0965 18.602C41.2885 18.494 41.5045 18.41 41.7445 18.35C41.9965 18.278 42.2905 18.242 42.6265 18.242C43.1905 18.242 43.6705 18.338 44.0665 18.53C44.4625 18.722 44.7865 18.974 45.0385 19.286C45.2905 19.586 45.4705 19.922 45.5785 20.294C45.6985 20.654 45.7585 21.008 45.7585 21.356V24.83ZM53.7546 23.948C53.7546 24.26 53.6766 24.548 53.5206 24.812C53.3646 25.076 53.1486 25.31 52.8726 25.514C52.6086 25.706 52.2966 25.862 51.9366 25.982C51.5766 26.09 51.1866 26.144 50.7666 26.144C50.2506 26.144 49.8306 26.078 49.5066 25.946C49.1826 25.802 48.9066 25.658 48.6786 25.514C48.5226 25.418 48.3786 25.34 48.2466 25.28C48.1146 25.208 47.9706 25.172 47.8146 25.172V23.804H47.9946C48.0306 23.972 48.1326 24.158 48.3006 24.362C48.4806 24.554 48.6906 24.734 48.9306 24.902C49.1826 25.07 49.4526 25.214 49.7406 25.334C50.0406 25.442 50.3406 25.496 50.6406 25.496C50.8566 25.496 51.0786 25.472 51.3066 25.424C51.5346 25.376 51.7386 25.298 51.9186 25.19C52.1106 25.082 52.2666 24.95 52.3866 24.794C52.5186 24.626 52.5846 24.428 52.5846 24.2C52.5846 23.972 52.5186 23.774 52.3866 23.606C52.2546 23.438 52.0866 23.294 51.8826 23.174C51.6786 23.042 51.4446 22.928 51.1806 22.832C50.9166 22.736 50.6526 22.646 50.3886 22.562C50.0766 22.466 49.7586 22.358 49.4346 22.238C49.1226 22.118 48.8406 21.98 48.5886 21.824C48.3366 21.656 48.1326 21.458 47.9766 21.23C47.8206 20.99 47.7426 20.708 47.7426 20.384C47.7426 20.108 47.7906 19.844 47.8866 19.592C47.9946 19.34 48.1626 19.124 48.3906 18.944C48.6306 18.752 48.9366 18.602 49.3086 18.494C49.6806 18.374 50.1306 18.314 50.6586 18.314C51.1266 18.314 51.4866 18.356 51.7386 18.44C52.0026 18.512 52.2186 18.59 52.3866 18.674C52.4946 18.734 52.6026 18.782 52.7106 18.818C52.8186 18.842 52.9386 18.854 53.0706 18.854V20.114H52.9266C52.7106 19.718 52.3806 19.418 51.9366 19.214C51.4926 19.01 51.0366 18.908 50.5686 18.908C50.2686 18.908 50.0106 18.95 49.7946 19.034C49.5786 19.106 49.3986 19.202 49.2546 19.322C49.1226 19.43 49.0206 19.556 48.9486 19.7C48.8886 19.844 48.8586 19.988 48.8586 20.132C48.8586 20.336 48.9126 20.51 49.0206 20.654C49.1406 20.798 49.2966 20.924 49.4886 21.032C49.6926 21.14 49.9146 21.242 50.1546 21.338C50.4066 21.434 50.6706 21.524 50.9466 21.608C51.2826 21.716 51.6186 21.836 51.9546 21.968C52.2906 22.088 52.5906 22.238 52.8546 22.418C53.1186 22.598 53.3346 22.814 53.5026 23.066C53.6706 23.306 53.7546 23.6 53.7546 23.948ZM62.235 24.83C62.235 24.914 62.247 25.016 62.271 25.136C62.295 25.244 62.325 25.352 62.361 25.46C62.409 25.556 62.469 25.64 62.541 25.712C62.613 25.784 62.697 25.82 62.793 25.82V26H61.047V25.01C60.867 25.274 60.603 25.532 60.255 25.784C59.907 26.036 59.457 26.162 58.905 26.162C58.209 26.162 57.657 26.042 57.249 25.802C56.841 25.562 56.529 25.256 56.313 24.884C56.097 24.512 55.959 24.11 55.899 23.678C55.839 23.234 55.809 22.82 55.809 22.436V19.862C55.809 19.754 55.803 19.652 55.791 19.556C55.791 19.448 55.767 19.352 55.719 19.268C55.683 19.184 55.623 19.118 55.539 19.07C55.455 19.01 55.335 18.98 55.179 18.98V18.818L56.997 18.242V22.832C56.997 23.744 57.195 24.416 57.591 24.848C57.987 25.28 58.473 25.496 59.049 25.496C59.361 25.496 59.637 25.43 59.877 25.298C60.129 25.154 60.339 24.986 60.507 24.794C60.687 24.602 60.819 24.404 60.903 24.2C60.999 23.996 61.047 23.828 61.047 23.696V19.862C61.047 19.754 61.041 19.652 61.029 19.556C61.029 19.448 61.005 19.352 60.957 19.268C60.921 19.184 60.861 19.118 60.777 19.07C60.693 19.01 60.573 18.98 60.417 18.98V18.818L62.235 18.242V24.83ZM64.4205 26V25.82C64.5165 25.82 64.6005 25.784 64.6725 25.712C64.7445 25.64 64.8045 25.556 64.8525 25.46C64.9125 25.364 64.9545 25.262 64.9785 25.154C65.0025 25.034 65.0145 24.926 65.0145 24.83V15.614C65.0145 15.41 64.9845 15.218 64.9245 15.038C64.8645 14.858 64.6845 14.762 64.3845 14.75V14.57L66.2025 14.012V24.83C66.2025 24.926 66.2145 25.034 66.2385 25.154C66.2625 25.262 66.2985 25.364 66.3465 25.46C66.4065 25.556 66.4665 25.64 66.5265 25.712C66.5985 25.784 66.6825 25.82 66.7785 25.82V26H64.4205ZM70.0805 19.052V23.39C70.0805 23.702 70.0865 23.984 70.0985 24.236C70.1105 24.488 70.1405 24.698 70.1885 24.866C70.2365 25.034 70.3085 25.166 70.4045 25.262C70.5005 25.346 70.6325 25.388 70.8005 25.388C71.0525 25.388 71.2865 25.268 71.5025 25.028C71.7305 24.788 71.8745 24.5 71.9345 24.164H72.0965V25.478C71.9885 25.478 71.8985 25.514 71.8265 25.586C71.7305 25.67 71.5925 25.76 71.4125 25.856C71.2445 25.952 70.9865 26 70.6385 26C70.2065 26 69.8705 25.916 69.6305 25.748C69.3905 25.58 69.2165 25.358 69.1085 25.082C69.0005 24.806 68.9345 24.5 68.9105 24.164C68.8985 23.828 68.8925 23.486 68.8925 23.138V19.052H67.8845V18.44H68.8925V16.838C68.8925 16.634 68.8625 16.448 68.8025 16.28C68.7545 16.1 68.5805 16.004 68.2805 15.992V15.812L70.0805 15.236V18.44H72.0965V19.052H70.0805ZM78.0033 26V25.082L77.9133 25.172C77.6133 25.472 77.2653 25.706 76.8693 25.874C76.4853 26.042 76.0173 26.126 75.4653 26.126C75.0453 26.126 74.6853 26.078 74.3853 25.982C74.0853 25.886 73.8393 25.754 73.6473 25.586C73.4553 25.406 73.3113 25.202 73.2153 24.974C73.1313 24.746 73.0893 24.506 73.0893 24.254C73.0893 23.846 73.1973 23.486 73.4133 23.174C73.6413 22.862 73.9653 22.586 74.3853 22.346C74.8053 22.106 75.3153 21.89 75.9153 21.698C76.5273 21.494 77.2233 21.296 78.0033 21.104C77.9793 20.636 77.8833 20.258 77.7153 19.97C77.5473 19.682 77.3493 19.46 77.1213 19.304C76.8933 19.136 76.6533 19.028 76.4013 18.98C76.1493 18.92 75.9333 18.89 75.7533 18.89C75.4413 18.89 75.1653 18.938 74.9253 19.034C74.6973 19.13 74.4933 19.256 74.3133 19.412C74.1453 19.556 74.0013 19.718 73.8813 19.898C73.7613 20.066 73.6653 20.228 73.5933 20.384H73.4313V19.07C73.5273 19.058 73.6173 19.028 73.7013 18.98C73.7853 18.932 73.8873 18.884 74.0073 18.836C74.1873 18.764 74.4333 18.662 74.7453 18.53C75.0573 18.386 75.4953 18.314 76.0593 18.314C76.7193 18.314 77.2533 18.398 77.6613 18.566C78.0693 18.734 78.3813 18.956 78.5973 19.232C78.8253 19.508 78.9753 19.826 79.0473 20.186C79.1193 20.534 79.1553 20.894 79.1553 21.266V24.83C79.1553 25.07 79.2093 25.298 79.3173 25.514C79.4253 25.718 79.5693 25.82 79.7493 25.82V26H78.0033ZM78.0033 24.29V21.716L77.8233 21.752C77.5353 21.824 77.1813 21.92 76.7613 22.04C76.3533 22.16 75.9633 22.316 75.5913 22.508C75.2193 22.7 74.9013 22.928 74.6373 23.192C74.3733 23.456 74.2413 23.762 74.2413 24.11C74.2413 24.494 74.3973 24.812 74.7093 25.064C75.0213 25.316 75.4293 25.442 75.9333 25.442C76.3293 25.442 76.6773 25.358 76.9773 25.19C77.2773 25.01 77.5533 24.782 77.8053 24.506L78.0033 24.29ZM83.0438 19.052V23.39C83.0438 23.702 83.0498 23.984 83.0618 24.236C83.0738 24.488 83.1038 24.698 83.1518 24.866C83.1998 25.034 83.2718 25.166 83.3678 25.262C83.4638 25.346 83.5958 25.388 83.7638 25.388C84.0158 25.388 84.2498 25.268 84.4658 25.028C84.6938 24.788 84.8378 24.5 84.8978 24.164H85.0598V25.478C84.9518 25.478 84.8618 25.514 84.7898 25.586C84.6938 25.67 84.5558 25.76 84.3758 25.856C84.2078 25.952 83.9498 26 83.6018 26C83.1698 26 82.8338 25.916 82.5938 25.748C82.3538 25.58 82.1798 25.358 82.0718 25.082C81.9638 24.806 81.8978 24.5 81.8738 24.164C81.8618 23.828 81.8558 23.486 81.8558 23.138V19.052H80.8478V18.44H81.8558V16.838C81.8558 16.634 81.8258 16.448 81.7658 16.28C81.7178 16.1 81.5438 16.004 81.2438 15.992V15.812L83.0438 15.236V18.44H85.0598V19.052H83.0438ZM86.4667 26V25.82C86.5627 25.82 86.6467 25.784 86.7187 25.712C86.7907 25.64 86.8507 25.556 86.8987 25.46C86.9467 25.364 86.9827 25.262 87.0067 25.154C87.0307 25.034 87.0427 24.926 87.0427 24.83V19.844C87.0427 19.64 87.0127 19.448 86.9527 19.268C86.8927 19.076 86.7187 18.974 86.4307 18.962V18.8L88.2307 18.224V24.83C88.2307 24.926 88.2427 25.034 88.2667 25.154C88.2907 25.262 88.3267 25.364 88.3747 25.46C88.4227 25.556 88.4827 25.64 88.5547 25.712C88.6267 25.784 88.7107 25.82 88.8067 25.82V26H86.4667ZM86.5567 16.496C86.5567 16.256 86.6347 16.052 86.7907 15.884C86.9587 15.716 87.1627 15.632 87.4027 15.632C87.6427 15.632 87.8467 15.716 88.0147 15.884C88.1827 16.052 88.2667 16.256 88.2667 16.496C88.2667 16.736 88.1827 16.934 88.0147 17.09C87.8467 17.246 87.6427 17.324 87.4027 17.324C87.1627 17.324 86.9587 17.246 86.7907 17.09C86.6347 16.934 86.5567 16.736 86.5567 16.496ZM94.3142 26.126C93.7142 26.126 93.1742 26.03 92.6942 25.838C92.2142 25.634 91.8002 25.364 91.4522 25.028C91.1162 24.68 90.8522 24.272 90.6602 23.804C90.4802 23.336 90.3902 22.826 90.3902 22.274C90.3902 21.686 90.4922 21.152 90.6962 20.672C90.9002 20.18 91.1822 19.76 91.5422 19.412C91.9022 19.064 92.3282 18.794 92.8202 18.602C93.3122 18.41 93.8462 18.314 94.4222 18.314C94.9982 18.314 95.5262 18.41 96.0062 18.602C96.4862 18.782 96.9002 19.04 97.2482 19.376C97.5962 19.712 97.8662 20.114 98.0582 20.582C98.2502 21.038 98.3462 21.542 98.3462 22.094C98.3462 22.61 98.2562 23.114 98.0762 23.606C97.9082 24.086 97.6502 24.512 97.3022 24.884C96.9662 25.256 96.5462 25.556 96.0422 25.784C95.5502 26.012 94.9742 26.126 94.3142 26.126ZM94.2062 18.908C93.7742 18.932 93.3902 19.04 93.0542 19.232C92.7302 19.412 92.4542 19.652 92.2262 19.952C92.0102 20.24 91.8422 20.57 91.7222 20.942C91.6142 21.314 91.5602 21.692 91.5602 22.076C91.5602 22.52 91.6262 22.952 91.7582 23.372C91.9022 23.78 92.1002 24.146 92.3522 24.47C92.6162 24.794 92.9282 25.052 93.2882 25.244C93.6482 25.436 94.0502 25.532 94.4942 25.532C94.9382 25.532 95.3282 25.436 95.6642 25.244C96.0122 25.052 96.3002 24.806 96.5282 24.506C96.7562 24.194 96.9242 23.846 97.0322 23.462C97.1522 23.078 97.2122 22.694 97.2122 22.31C97.2122 21.914 97.1522 21.518 97.0322 21.122C96.9122 20.714 96.7262 20.348 96.4742 20.024C96.2222 19.688 95.9042 19.418 95.5202 19.214C95.1482 19.01 94.7102 18.908 94.2062 18.908ZM106.994 24.83C106.994 24.926 107.006 25.034 107.03 25.154C107.054 25.262 107.09 25.364 107.138 25.46C107.198 25.556 107.258 25.64 107.318 25.712C107.39 25.784 107.474 25.82 107.57 25.82V26H105.248V25.82C105.332 25.82 105.41 25.784 105.482 25.712C105.554 25.64 105.614 25.556 105.662 25.46C105.722 25.364 105.764 25.262 105.788 25.154C105.812 25.034 105.824 24.926 105.824 24.83V21.482C105.824 21.05 105.764 20.672 105.644 20.348C105.524 20.024 105.362 19.754 105.158 19.538C104.954 19.322 104.72 19.166 104.456 19.07C104.204 18.962 103.946 18.908 103.682 18.908C103.418 18.908 103.154 18.962 102.89 19.07C102.638 19.178 102.41 19.322 102.206 19.502C102.014 19.67 101.852 19.874 101.72 20.114C101.6 20.342 101.54 20.582 101.54 20.834V24.83C101.54 24.926 101.552 25.034 101.576 25.154C101.6 25.262 101.636 25.364 101.684 25.46C101.744 25.556 101.804 25.64 101.864 25.712C101.936 25.784 102.02 25.82 102.116 25.82V26H99.7761V25.82C99.8601 25.82 99.9381 25.784 100.01 25.712C100.082 25.64 100.142 25.556 100.19 25.46C100.25 25.364 100.292 25.262 100.316 25.154C100.34 25.034 100.352 24.926 100.352 24.83V19.862C100.352 19.658 100.322 19.466 100.262 19.286C100.202 19.094 100.028 18.992 99.7401 18.98V18.818L101.54 18.242V19.232C101.624 19.136 101.732 19.034 101.864 18.926C101.996 18.806 102.152 18.698 102.332 18.602C102.524 18.494 102.74 18.41 102.98 18.35C103.232 18.278 103.526 18.242 103.862 18.242C104.426 18.242 104.906 18.338 105.302 18.53C105.698 18.722 106.022 18.974 106.274 19.286C106.526 19.586 106.706 19.922 106.814 20.294C106.934 20.654 106.994 21.008 106.994 21.356V24.83Z" fill="black"/>
<line y1="39.5" x2="145" y2="39.5" stroke="black"/>
<line x1="72" y1="0.5" x2="144.5" y2="0.5" stroke="black"/>
<line x1="144.5" y1="40" x2="144.5" stroke="black"/>
</svg>
