<svg width="126" height="40" viewBox="0 0 126 40" fill="none" xmlns="http://www.w3.org/2000/svg">
<path fill-rule="evenodd" clip-rule="evenodd" d="M98.1875 21.0597C98.1875 20.9022 98.2501 20.7512 98.3614 20.6398C98.4728 20.5285 98.6238 20.4659 98.7813 20.4659L112.785 20.4659L109.048 16.73C108.937 16.6186 108.874 16.4673 108.874 16.3097C108.874 16.152 108.937 16.0008 109.048 15.8893C109.16 15.7778 109.311 15.7152 109.469 15.7152C109.626 15.7152 109.778 15.7778 109.889 15.8893L114.639 20.6393C114.694 20.6945 114.738 20.76 114.768 20.8321C114.798 20.9042 114.814 20.9816 114.814 21.0597C114.814 21.1378 114.798 21.2151 114.768 21.2872C114.738 21.3594 114.694 21.4249 114.639 21.48L109.889 26.23C109.778 26.3415 109.626 26.4042 109.469 26.4042C109.311 26.4042 109.16 26.3415 109.048 26.23C108.937 26.1186 108.874 25.9673 108.874 25.8097C108.874 25.652 108.937 25.5008 109.048 25.3893L112.785 21.6534L98.7813 21.6534C98.6238 21.6534 98.4728 21.5909 98.3614 21.4795C98.2501 21.3682 98.1875 21.2171 98.1875 21.0597V21.0597Z" fill="black"/>
<path d="M41.07 19.736H43.644V19.916H43.554C43.458 19.916 43.374 19.952 43.302 20.024C43.23 20.084 43.17 20.162 43.122 20.258C43.074 20.354 43.032 20.456 42.996 20.564C42.972 20.672 42.96 20.768 42.96 20.852V25.676C42.744 25.76 42.498 25.832 42.222 25.892C41.946 25.952 41.658 26 41.358 26.036C41.058 26.084 40.752 26.12 40.44 26.144C40.128 26.168 39.84 26.18 39.576 26.18C38.496 26.18 37.554 26 36.75 25.64C35.946 25.28 35.28 24.812 34.752 24.236C34.224 23.648 33.828 22.988 33.564 22.256C33.312 21.524 33.186 20.786 33.186 20.042C33.186 19.298 33.312 18.56 33.564 17.828C33.828 17.096 34.224 16.442 34.752 15.866C35.292 15.29 35.964 14.828 36.768 14.48C37.584 14.12 38.55 13.94 39.666 13.94C40.086 13.94 40.476 13.976 40.836 14.048C41.196 14.12 41.514 14.186 41.79 14.246C41.946 14.282 42.078 14.318 42.186 14.354C42.306 14.378 42.408 14.39 42.492 14.39H42.654V16.298H42.474C42.402 15.926 42.258 15.626 42.042 15.398C41.838 15.17 41.598 14.996 41.322 14.876C41.046 14.756 40.752 14.678 40.44 14.642C40.14 14.594 39.858 14.57 39.594 14.57C38.694 14.57 37.914 14.732 37.254 15.056C36.594 15.368 36.054 15.776 35.634 16.28C35.214 16.784 34.902 17.354 34.698 17.99C34.494 18.614 34.392 19.238 34.392 19.862C34.392 20.558 34.524 21.248 34.788 21.932C35.052 22.604 35.424 23.21 35.904 23.75C36.384 24.278 36.96 24.71 37.632 25.046C38.316 25.37 39.072 25.532 39.9 25.532C40.128 25.532 40.41 25.508 40.746 25.46C41.082 25.4 41.418 25.274 41.754 25.082V20.852C41.754 20.768 41.742 20.672 41.718 20.564C41.694 20.456 41.652 20.354 41.592 20.258C41.544 20.162 41.484 20.084 41.412 20.024C41.34 19.952 41.256 19.916 41.16 19.916H41.07V19.736ZM52.0901 24.83C52.0901 24.914 52.1021 25.016 52.1261 25.136C52.1501 25.244 52.1801 25.352 52.2161 25.46C52.2641 25.556 52.3241 25.64 52.3961 25.712C52.4681 25.784 52.5521 25.82 52.6481 25.82V26H50.9021V25.01C50.7221 25.274 50.4581 25.532 50.1101 25.784C49.7621 26.036 49.3121 26.162 48.7601 26.162C48.0641 26.162 47.5121 26.042 47.1041 25.802C46.6961 25.562 46.3841 25.256 46.1681 24.884C45.9521 24.512 45.8141 24.11 45.7541 23.678C45.6941 23.234 45.6641 22.82 45.6641 22.436V19.862C45.6641 19.754 45.6581 19.652 45.6461 19.556C45.6461 19.448 45.6221 19.352 45.5741 19.268C45.5381 19.184 45.4781 19.118 45.3941 19.07C45.3101 19.01 45.1901 18.98 45.0341 18.98V18.818L46.8521 18.242V22.832C46.8521 23.744 47.0501 24.416 47.4461 24.848C47.8421 25.28 48.3281 25.496 48.9041 25.496C49.2161 25.496 49.4921 25.43 49.7321 25.298C49.9841 25.154 50.1941 24.986 50.3621 24.794C50.5421 24.602 50.6741 24.404 50.7581 24.2C50.8541 23.996 50.9021 23.828 50.9021 23.696V19.862C50.9021 19.754 50.8961 19.652 50.8841 19.556C50.8841 19.448 50.8601 19.352 50.8121 19.268C50.7761 19.184 50.7161 19.118 50.6321 19.07C50.5481 19.01 50.4281 18.98 50.2721 18.98V18.818L52.0901 18.242V24.83ZM54.4556 26V25.82C54.5516 25.82 54.6356 25.784 54.7076 25.712C54.7796 25.64 54.8396 25.556 54.8876 25.46C54.9356 25.364 54.9716 25.262 54.9956 25.154C55.0196 25.034 55.0316 24.926 55.0316 24.83V19.844C55.0316 19.64 55.0016 19.448 54.9416 19.268C54.8816 19.076 54.7076 18.974 54.4196 18.962V18.8L56.2196 18.224V24.83C56.2196 24.926 56.2316 25.034 56.2556 25.154C56.2796 25.262 56.3156 25.364 56.3636 25.46C56.4116 25.556 56.4716 25.64 56.5436 25.712C56.6156 25.784 56.6996 25.82 56.7956 25.82V26H54.4556ZM54.5456 16.496C54.5456 16.256 54.6236 16.052 54.7796 15.884C54.9476 15.716 55.1516 15.632 55.3916 15.632C55.6316 15.632 55.8356 15.716 56.0036 15.884C56.1716 16.052 56.2556 16.256 56.2556 16.496C56.2556 16.736 56.1716 16.934 56.0036 17.09C55.8356 17.246 55.6316 17.324 55.3916 17.324C55.1516 17.324 54.9476 17.246 54.7796 17.09C54.6236 16.934 54.5456 16.736 54.5456 16.496ZM64.2471 26V25.208C64.0431 25.436 63.7671 25.646 63.4191 25.838C63.0831 26.03 62.6571 26.126 62.1411 26.126C61.5051 26.126 60.9471 26.018 60.4671 25.802C59.9991 25.574 59.6091 25.28 59.2971 24.92C58.9851 24.56 58.7511 24.152 58.5951 23.696C58.4511 23.228 58.3791 22.748 58.3791 22.256C58.3791 21.776 58.4571 21.302 58.6131 20.834C58.7691 20.354 59.0031 19.928 59.3151 19.556C59.6271 19.184 60.0171 18.884 60.4851 18.656C60.9531 18.428 61.4931 18.314 62.1051 18.314C62.5131 18.314 62.9151 18.392 63.3111 18.548C63.7071 18.692 64.0191 18.884 64.2471 19.124V15.614C64.2471 15.41 64.2171 15.218 64.1571 15.038C64.0971 14.858 63.9231 14.762 63.6351 14.75V14.57L65.4351 14.012V24.83C65.4351 24.926 65.4471 25.034 65.4711 25.154C65.4951 25.262 65.5311 25.364 65.5791 25.46C65.6271 25.556 65.6871 25.64 65.7591 25.712C65.8311 25.784 65.9151 25.82 66.0111 25.82V26H64.2471ZM62.2671 25.532C62.5191 25.532 62.7651 25.484 63.0051 25.388C63.2451 25.28 63.4551 25.142 63.6351 24.974C63.8151 24.794 63.9591 24.59 64.0671 24.362C64.1871 24.122 64.2471 23.864 64.2471 23.588V21.122C64.2471 20.786 64.1751 20.486 64.0311 20.222C63.8871 19.946 63.7071 19.712 63.4911 19.52C63.2751 19.328 63.0351 19.184 62.7711 19.088C62.5191 18.98 62.2731 18.926 62.0331 18.926C61.6371 18.926 61.2831 19.022 60.9711 19.214C60.6591 19.394 60.3951 19.634 60.1791 19.934C59.9631 20.222 59.8011 20.552 59.6931 20.924C59.5851 21.284 59.5311 21.644 59.5311 22.004C59.5311 22.424 59.5911 22.844 59.7111 23.264C59.8311 23.672 60.0051 24.044 60.2331 24.38C60.4731 24.704 60.7611 24.974 61.0971 25.19C61.4331 25.406 61.8231 25.52 62.2671 25.532ZM68.5436 22.364C68.5916 22.784 68.6936 23.186 68.8496 23.57C69.0056 23.942 69.2096 24.272 69.4616 24.56C69.7256 24.848 70.0436 25.082 70.4156 25.262C70.7876 25.43 71.2196 25.514 71.7116 25.514C71.9756 25.514 72.2516 25.478 72.5396 25.406C72.8396 25.322 73.1156 25.208 73.3676 25.064C73.6196 24.92 73.8416 24.746 74.0336 24.542C74.2376 24.326 74.3756 24.086 74.4476 23.822H74.6096V25.172C74.5376 25.172 74.4536 25.196 74.3576 25.244C74.2736 25.292 74.1716 25.352 74.0516 25.424C73.8116 25.568 73.4876 25.724 73.0796 25.892C72.6716 26.048 72.1316 26.126 71.4596 26.126C70.9196 26.126 70.4036 26.048 69.9116 25.892C69.4316 25.736 69.0056 25.496 68.6336 25.172C68.2616 24.848 67.9616 24.434 67.7336 23.93C67.5176 23.426 67.4096 22.826 67.4096 22.13C67.4096 21.686 67.4816 21.236 67.6256 20.78C67.7816 20.324 68.0096 19.916 68.3096 19.556C68.6216 19.184 69.0176 18.884 69.4976 18.656C69.9776 18.428 70.5536 18.314 71.2256 18.314C71.8256 18.314 72.3476 18.416 72.7916 18.62C73.2476 18.824 73.6196 19.106 73.9076 19.466C74.2076 19.826 74.4296 20.252 74.5736 20.744C74.7176 21.236 74.7896 21.776 74.7896 22.364H68.5436ZM71.1536 18.908C70.7336 18.908 70.3676 18.992 70.0556 19.16C69.7556 19.328 69.4976 19.544 69.2816 19.808C69.0656 20.072 68.8976 20.372 68.7776 20.708C68.6576 21.044 68.5796 21.38 68.5436 21.716H73.6736C73.6616 21.368 73.5956 21.026 73.4756 20.69C73.3676 20.354 73.2116 20.054 73.0076 19.79C72.8036 19.526 72.5456 19.316 72.2336 19.16C71.9216 18.992 71.5616 18.908 71.1536 18.908Z" fill="black"/>
<line y1="39.5" x2="126" y2="39.5" stroke="black"/>
<line x1="62" y1="0.5" x2="125" y2="0.5" stroke="black"/>
<line x1="125.5" y1="40" x2="125.5" stroke="black"/>
</svg>
